<?xml version="1.0" encoding="utf-8"?>
<!-- Generator: Adobe Illustrator 19.0.0, SVG Export Plug-In . SVG Version: 6.00 Build 0)  -->
<svg version="1.1" id="Layer_1" xmlns="http://www.w3.org/2000/svg" xmlns:xlink="http://www.w3.org/1999/xlink" x="0px" y="0px"
	 viewBox="0 0 78.8 70.1" style="enable-background:new 0 0 78.8 70.1;" xml:space="preserve">
<style type="text/css">
	.st0{fill:#7FC5E0;}
	.st1{fill:#1F86BC;}
	.st2{fill:#A9CF3B;}
	.st3{fill:#164987;}
</style>
<path id="XMLID_35_" class="st0" d="M11.9,58c-4-7-2.8-16,3.5-21.5l34.2-30c7.1-6.3,18.1-5.6,24.3,1.5c6.3,7.1,5.6,18.1-1.5,24.3
	l-34.1,30c-7.1,6.3-18.1,5.6-24.3-1.5C13.1,59.9,12.5,59,11.9,58"/>
<path id="XMLID_34_" class="st0" d="M3,42.6c-0.6-1-1-2.1-1.4-3.2c-3.1-9,1.8-18.8,10.7-21.8L55.4,3.1c9-3.1,18.8,1.8,21.8,10.8
	c3.1,9-1.8,18.8-10.8,21.8L23.3,50.2C15.5,52.8,7,49.5,3,42.6"/>
<path id="XMLID_33_" class="st0" d="M8.4,26.6c-1.5-2.6-2.4-5.8-2.2-9.2C6.5,7.9,14.5,0.4,24,0.9l37.7,1.4c9.5,0.3,17,8.3,16.5,17.8
	c-0.3,9.5-8.3,17-17.8,16.5l-37.7-1.4C16.6,35.1,11.3,31.6,8.4,26.6"/>
<path id="XMLID_32_" class="st0" d="M28.4,61.2c-2.9-5-3.2-11.3-0.3-16.7l17.7-33.2C50.3,2.9,60.7-0.3,69,4.2
	c8.3,4.4,11.5,14.9,7.1,23.2L58.5,60.6C54,69,43.6,72.2,35.3,67.7C32.3,66.2,30,64,28.4,61.2"/>
<path id="XMLID_31_" class="st1" d="M57.2,36.4h-1.1l2.2,0.1C57.9,36.4,57.5,36.4,57.2,36.4"/>
<path id="XMLID_30_" class="st1" d="M68.6,34.8"/>
<path id="XMLID_29_" class="st1" d="M37.3,27.3c2.1-4,4.2-7.9,6.3-12c1.7-3.1,3.1-6.3,5.7-8.6c1.8-1.7,3.9-2.9,6.3-3.6h-0.1
	L12.3,17.5c-2.2,0.8-4.3,1.9-6,3.5c0.4,1.9,1.1,3.9,2.1,5.6c2.9,5,8.2,8.3,14.3,8.6l10.1,0.4C34.4,32.8,35.8,30,37.3,27.3"/>
<path id="XMLID_28_" class="st1" d="M63.8,36.3c-1.1,0.3-2.4,0.3-3.6,0.3h0.3c2.4,0.1,4.6-0.3,6.7-1.1l0.1-0.1
	C66.1,35.9,65,36.2,63.8,36.3"/>
<path id="XMLID_27_" class="st1" d="M63.8,36.3c-2.1,0.4-4.3,0.3-6.5,0.1c-3.2,0-6.3-0.1-9.5-0.3c-5-0.1-9.9-0.4-14.9-0.6
	c1.5-2.8,2.9-5.6,4.4-8.3c2.1-4,4.2-7.9,6.3-12c1.7-3.1,3.1-6.3,5.7-8.6c1-1,2.1-1.7,3.3-2.4c0-0.1-0.1-0.1-0.1-0.1
	c-1,0.6-1.9,1.3-2.8,2.1h-0.1C48,7.7,46.8,9.2,45.8,11L28.2,44.5c-2.9,5.4-2.5,11.7,0.3,16.7c1,1.7,2.4,3.2,3.9,4.6
	c2.1-0.7,4.2-1.8,6-3.5l34.1-30C70,34.4,67,35.9,63.8,36.3"/>
<path id="XMLID_26_" class="st1" d="M63.8,36.3c-2.1,0.4-4.3,0.3-6.5,0.1c-3.2,0-6.3-0.1-9.5-0.3c-5-0.1-9.9-0.4-14.9-0.6
	c1.5-2.8,2.9-5.6,4.4-8.3c2.1-4,4.2-7.9,6.3-12c1.5-2.6,2.8-5.6,4.9-7.8L15.5,36.6c-3.8,3.3-5.7,7.8-5.8,12.5c4,2.2,9,2.8,13.8,1.3
	l43.1-14.5c2.2-0.7,4.2-1.9,5.8-3.3l1.3-1.3V31C71,33.8,67.6,35.7,63.8,36.3"/>
<path id="XMLID_3_" class="st2" d="M77.5,24.2c2.1-7.2-0.8-15.2-7.2-19.3c-6.5-4.2-15.3-3.5-21,1.8c-2.6,2.4-4,5.6-5.7,8.6
	c-2.1,4-4.2,7.9-6.3,12c-1.5,2.8-2.9,5.6-4.4,8.3c5,0.1,9.9,0.4,14.9,0.6c3.2,0.1,6.3,0.3,9.5,0.3c2.2,0.1,4.4,0.3,6.5-0.1
	C70.3,35.3,75.7,30.5,77.5,24.2"/>
<path id="XMLID_2_" class="st3" d="M63.8,36.3c-2.1,0.4-4.3,0.3-6.5,0.1c-3.2,0-6.3-0.1-9.5-0.3c-5-0.1-9.9-0.4-14.9-0.6
	c1.5-2.8,2.9-5.6,4.4-8.3c2.1-4,4.2-7.9,6.3-12c1.7-3.1,3.1-6.3,5.7-8.6c0.3-0.3,0.6-0.4,0.8-0.7c-0.1,0.1-0.4,0.3-0.6,0.4
	c-7.5,6.5-15,13.2-22.5,19.9c-3.1,2.6-6.1,5.4-9.2,8.1c2.8,1,5.6,0.8,8.5,1c2.1,0.1,4.3,0.1,6.4,0.3c-1,1.9-1.9,3.8-3.1,5.7
	c-1.4,2.5-2.8,5-3.3,7.9c7.1-2.4,14.2-4.7,21.1-7.1c4.6-1.5,9.3-3.1,13.9-4.7c2.5-0.8,5.3-1.5,7.6-2.8c0.4-0.1,0.7-0.4,1-0.7
	C68.2,35.2,66,36,63.8,36.3"/>
</svg>
