<?xml version="1.0" encoding="utf-8"?>
<!-- Generator: Adobe Illustrator 19.0.0, SVG Export Plug-In . SVG Version: 6.00 Build 0)  -->
<svg version="1.1" id="Layer_1" xmlns="http://www.w3.org/2000/svg" xmlns:xlink="http://www.w3.org/1999/xlink" x="0px" y="0px"
	 viewBox="0 0 351.7 73" style="enable-background:new 0 0 351.7 73;" xml:space="preserve">
<style type="text/css">
	.st0{fill:#7FC5E0;}
	.st1{fill:#1F86BC;}
	.st2{fill:#164987;}
	.st3{fill:#A9CF3B;}
</style>
<path id="XMLID_35_" class="st0" d="M13.7,59.4c-4-7-2.8-16,3.5-21.5l34.2-30c7.1-6.3,18.1-5.6,24.3,1.5c6.3,7.1,5.6,18.1-1.5,24.3
	l-34.1,30c-7.1,6.3-18.1,5.6-24.3-1.5C15,61.3,14.3,60.4,13.7,59.4"/>
<path id="XMLID_34_" class="st0" d="M4.8,44c-0.6-1-1-2.1-1.4-3.2c-3.1-9,1.8-18.8,10.7-21.8L57.3,4.5c9-3.1,18.8,1.8,21.8,10.8
	c3.1,9-1.8,18.8-10.8,21.8L25.1,51.6C17.4,54.3,8.9,50.9,4.8,44"/>
<path id="XMLID_33_" class="st0" d="M10.3,28c-1.5-2.6-2.4-5.8-2.2-9.2c0.3-9.5,8.3-17,17.8-16.5l37.7,1.4c9.5,0.3,17,8.3,16.5,17.8
	c-0.3,9.5-8.3,17-17.8,16.5l-37.7-1.4C18.5,36.5,13.2,33,10.3,28"/>
<path id="XMLID_32_" class="st0" d="M30.3,62.6c-2.9-5-3.2-11.3-0.3-16.7l17.7-33.2c4.4-8.3,14.9-11.5,23.2-7.1S82.4,20.5,78,28.8
	L60.3,62c-4.4,8.3-14.9,11.5-23.2,7.1C34.2,67.6,31.8,65.4,30.3,62.6"/>
<path id="XMLID_31_" class="st1" d="M59.1,37.8h-1.1l2.2,0.1C59.8,37.8,59.3,37.8,59.1,37.8"/>
<path id="XMLID_30_" class="st1" d="M70.5,36.2"/>
<path id="XMLID_29_" class="st1" d="M39.2,28.7c2.1-4,4.2-7.9,6.3-12c1.7-3.1,3.1-6.3,5.7-8.6c1.8-1.7,3.9-2.9,6.3-3.6h-0.1
	L14.2,18.9c-2.2,0.8-4.3,1.9-6,3.5c0.4,1.9,1.1,3.9,2.1,5.6c2.9,5,8.2,8.3,14.3,8.6L34.7,37C36.3,34.2,37.7,31.5,39.2,28.7"/>
<path id="XMLID_28_" class="st1" d="M65.6,37.7C64.5,38,63.2,38,62,38h0.3c2.4,0.1,4.6-0.3,6.7-1.1l0.1-0.1
	C68,37.3,66.8,37.6,65.6,37.7"/>
<path id="XMLID_27_" class="st1" d="M65.6,37.7c-2.1,0.4-4.3,0.3-6.5,0.1c-3.2,0-6.3-0.1-9.5-0.3c-5-0.1-9.9-0.4-14.9-0.6
	c1.5-2.8,2.9-5.6,4.4-8.3c2.1-4,4.2-7.9,6.3-12c1.7-3.1,3.1-6.3,5.7-8.6c1-1,2.1-1.7,3.3-2.4c0-0.1-0.1-0.1-0.1-0.1
	c-1,0.6-1.9,1.3-2.8,2.1h-0.1c-1.5,1.4-2.8,2.9-3.8,4.7L30,45.9c-2.9,5.4-2.5,11.7,0.3,16.7c1,1.7,2.4,3.2,3.9,4.6
	c2.1-0.7,4.2-1.8,6-3.5l34.1-30C71.9,35.8,68.8,37.3,65.6,37.7"/>
<path id="XMLID_26_" class="st1" d="M65.6,37.7c-2.1,0.4-4.3,0.3-6.5,0.1c-3.2,0-6.3-0.1-9.5-0.3c-5-0.1-9.9-0.4-14.9-0.6
	c1.5-2.8,2.9-5.6,4.4-8.3c2.1-4,4.2-7.9,6.3-12c1.5-2.6,2.8-5.6,4.9-7.8L17.4,38c-3.8,3.3-5.7,7.8-5.8,12.5c4,2.2,9,2.8,13.8,1.3
	l43.1-14.5c2.2-0.7,4.2-1.9,5.8-3.3l1.3-1.3v-0.3C72.8,35.2,69.5,37.2,65.6,37.7"/>
<path id="XMLID_65_" class="st2" d="M94,66.3V20.1c0-2.2,0.8-3.1,3.1-3.1h20.7c9.9,0,15.7,5,15.7,13.9c0,5-1.5,8.3-5.1,10.8V42
	c4.4,1.9,7.1,6.3,7.1,12.7c0,9.3-7.4,14.5-17.4,14.5H97C94.8,69.4,94,68.6,94,66.3 M115.9,37.7c3.5,0,5.4-1.5,5.4-5
	c0-3.3-1.8-5-5.4-5h-9.9v10H115.9z M117.3,58.7c3.6,0,5.6-1.7,5.6-5.3c0-3.5-1.8-5.4-5.6-5.4h-11.3v10.7H117.3z"/>
<path id="XMLID_22_" class="st2" d="M142.2,66.6V17.5c0-2.1,0.7-2.8,2.8-2.8h5.7c2.1,0,2.8,0.7,2.8,2.8v49.1c0,2.1-0.7,2.8-2.8,2.8
	H145C142.9,69.4,142.2,68.7,142.2,66.6"/>
<path id="XMLID_21_" class="st2" d="M161.2,55.2V33.8c0-2.1,0.7-2.8,2.8-2.8h5.7c2.1,0,2.8,0.7,2.8,2.8v21.1c0,3.9,2.1,5.6,6.3,5.6
	c1.9,0,3.2-0.1,4.9-0.6c0.4-0.1,0.6-0.4,0.6-0.8V33.8c0-2.1,0.7-2.8,2.8-2.8h5.7c1.9,0,2.6,0.7,2.6,2.8v29.7c0,2.4-0.6,3.3-2.9,4.3
	c-3.1,1.2-7.8,2.6-15.2,2.6C166.2,70.5,161.2,64.8,161.2,55.2"/>
<path id="XMLID_60_" class="st2" d="M202,54.1v-7.8c0-10.6,6.3-16.4,17.7-16.4c12.2,0,17.8,7.1,17.8,15.6v4.5c0,2.2-1,3.6-3.9,3.6
	h-20.4v1.8c0,4,2.5,5.8,6.7,5.8c3.5,0,5.7-1.1,7-2.9c1.3-1.7,2.1-1.9,4.3-0.8l3.6,1.8c2.1,1,2.4,2.4,1.1,4.3
	c-2.6,4.3-7.8,6.8-16.3,6.8C206.8,70.5,202,63.4,202,54.1 M226.2,45.6v-1.1c0-3.6-2.2-5.7-6.7-5.7c-4.3,0-6.5,1.9-6.5,5.7v1.1H226.2
	z"/>
<path id="XMLID_18_" class="st2" d="M243.5,66.6V36.9c0-2.4,0.6-3.3,2.9-4.3c3.1-1.3,7.8-2.6,15-2.6c10.8,0,15.8,5.6,15.8,15.3v21.4
	c0,2.1-0.7,2.8-2.6,2.8H269c-1.9,0-2.8-0.7-2.8-2.8V45.5c0-3.9-2.1-5.6-6.3-5.6c-1.9,0-3.6,0.3-5.1,0.6c-0.1,0.1-0.3,0.1-0.3,0.3
	v25.7c0,2.1-0.7,2.8-2.8,2.8h-5.4C244.2,69.4,243.5,68.7,243.5,66.6"/>
<path id="XMLID_56_" class="st2" d="M284,54.1v-7.8c0-10.6,6.3-16.4,17.7-16.4c12.2,0,17.8,7.1,17.8,15.6v4.5c0,2.2-1,3.6-3.9,3.6
	h-20.4v1.8c0,4,2.5,5.8,6.7,5.8c3.5,0,5.7-1.1,7-2.9c1.2-1.7,2.1-1.9,4.3-0.8l3.6,1.8c2.1,1,2.4,2.4,1.1,4.3
	c-2.6,4.3-7.8,6.8-16.3,6.8C289,70.5,284,63.4,284,54.1 M308.3,45.6v-1.1c0-3.6-2.2-5.7-6.7-5.7c-4.3,0-6.5,1.9-6.5,5.7v1.1H308.3z"
	/>
<path id="XMLID_15_" class="st2" d="M329.5,52.6V40.9h-3.9c-2.1,0-2.8-0.7-2.8-2.8v-4.4c0-2.1,0.7-2.8,2.8-2.8h3.9v-6.1
	c0-2.1,0.7-2.8,2.8-2.8h5.7c1.9,0,2.6,0.7,2.6,2.8v6.1h6.8c1.9,0,2.6,0.7,2.6,2.8v4.4c0,1.9-0.7,2.8-2.6,2.8h-6.8v11.3
	c0,5.8,1.8,6.8,6.8,6.8c2.1,0,2.8,0.7,2.8,2.8v4.6c0,2.1-0.7,2.9-2.8,2.9C334.5,69.4,329.5,65.7,329.5,52.6"/>
<path id="XMLID_51_" class="st2" d="M94,66.3V20.1c0-2.2,0.8-3.1,3.1-3.1h20.7c9.9,0,15.7,5,15.7,13.9c0,5-1.5,8.3-5.1,10.8V42
	c4.4,1.9,7.1,6.3,7.1,12.7c0,9.3-7.4,14.5-17.4,14.5H97C94.8,69.4,94,68.6,94,66.3 M115.9,37.7c3.5,0,5.4-1.5,5.4-5
	c0-3.3-1.8-5-5.4-5h-9.9v10H115.9z M117.3,58.7c3.6,0,5.6-1.7,5.6-5.3c0-3.5-1.8-5.4-5.6-5.4h-11.3v10.7H117.3z"/>
<path id="XMLID_11_" class="st2" d="M142.2,66.6V17.5c0-2.1,0.7-2.8,2.8-2.8h5.7c2.1,0,2.8,0.7,2.8,2.8v49.1c0,2.1-0.7,2.8-2.8,2.8
	H145C142.9,69.4,142.2,68.7,142.2,66.6"/>
<path id="XMLID_10_" class="st2" d="M161.2,55.2V33.8c0-2.1,0.7-2.8,2.8-2.8h5.7c2.1,0,2.8,0.7,2.8,2.8v21.1c0,3.9,2.1,5.6,6.3,5.6
	c1.9,0,3.2-0.1,4.9-0.6c0.4-0.1,0.6-0.4,0.6-0.8V33.8c0-2.1,0.7-2.8,2.8-2.8h5.7c1.9,0,2.6,0.7,2.6,2.8v29.7c0,2.4-0.6,3.3-2.9,4.3
	c-3.1,1.2-7.8,2.6-15.2,2.6C166.2,70.5,161.2,64.8,161.2,55.2"/>
<path id="XMLID_46_" class="st2" d="M202,54.1v-7.8c0-10.6,6.3-16.4,17.7-16.4c12.2,0,17.8,7.1,17.8,15.6v4.5c0,2.2-1,3.6-3.9,3.6
	h-20.4v1.8c0,4,2.5,5.8,6.7,5.8c3.5,0,5.7-1.1,7-2.9c1.3-1.7,2.1-1.9,4.3-0.8l3.6,1.8c2.1,1,2.4,2.4,1.1,4.3
	c-2.6,4.3-7.8,6.8-16.3,6.8C206.8,70.5,202,63.4,202,54.1 M226.2,45.6v-1.1c0-3.6-2.2-5.7-6.7-5.7c-4.3,0-6.5,1.9-6.5,5.7v1.1H226.2
	z"/>
<path id="XMLID_7_" class="st2" d="M243.5,66.6V36.9c0-2.4,0.6-3.3,2.9-4.3c3.1-1.3,7.8-2.6,15-2.6c10.8,0,15.8,5.6,15.8,15.3v21.4
	c0,2.1-0.7,2.8-2.6,2.8H269c-1.9,0-2.8-0.7-2.8-2.8V45.5c0-3.9-2.1-5.6-6.3-5.6c-1.9,0-3.6,0.3-5.1,0.6c-0.1,0.1-0.3,0.1-0.3,0.3
	v25.7c0,2.1-0.7,2.8-2.8,2.8h-5.4C244.2,69.4,243.5,68.7,243.5,66.6"/>
<path id="XMLID_42_" class="st2" d="M284,54.1v-7.8c0-10.6,6.3-16.4,17.7-16.4c12.2,0,17.8,7.1,17.8,15.6v4.5c0,2.2-1,3.6-3.9,3.6
	h-20.4v1.8c0,4,2.5,5.8,6.7,5.8c3.5,0,5.7-1.1,7-2.9c1.2-1.7,2.1-1.9,4.3-0.8l3.6,1.8c2.1,1,2.4,2.4,1.1,4.3
	c-2.6,4.3-7.8,6.8-16.3,6.8C289,70.5,284,63.4,284,54.1 M308.3,45.6v-1.1c0-3.6-2.2-5.7-6.7-5.7c-4.3,0-6.5,1.9-6.5,5.7v1.1H308.3z"
	/>
<path id="XMLID_4_" class="st2" d="M329.5,52.6V40.9h-3.9c-2.1,0-2.8-0.7-2.8-2.8v-4.4c0-2.1,0.7-2.8,2.8-2.8h3.9v-6.1
	c0-2.1,0.7-2.8,2.8-2.8h5.7c1.9,0,2.6,0.7,2.6,2.8v6.1h6.8c1.9,0,2.6,0.7,2.6,2.8v4.4c0,1.9-0.7,2.8-2.6,2.8h-6.8v11.3
	c0,5.8,1.8,6.8,6.8,6.8c2.1,0,2.8,0.7,2.8,2.8v4.6c0,2.1-0.7,2.9-2.8,2.9C334.5,69.4,329.5,65.7,329.5,52.6"/>
<path id="XMLID_3_" class="st3" d="M79.4,25.6c2.1-7.2-0.8-15.2-7.2-19.3c-6.5-4.2-15.3-3.5-21,1.8c-2.6,2.4-4,5.6-5.7,8.6
	c-2.1,4-4.2,7.9-6.3,12c-1.5,2.8-2.9,5.6-4.4,8.3c5,0.1,9.9,0.4,14.9,0.6c3.2,0.1,6.3,0.3,9.5,0.3c2.2,0.1,4.4,0.3,6.5-0.1
	C72.1,36.7,77.6,31.9,79.4,25.6"/>
<path id="XMLID_2_" class="st2" d="M65.6,37.7c-2.1,0.4-4.3,0.3-6.5,0.1c-3.2,0-6.3-0.1-9.5-0.3c-5-0.1-9.9-0.4-14.9-0.6
	c1.5-2.8,2.9-5.6,4.4-8.3c2.1-4,4.2-7.9,6.3-12c1.7-3.1,3.1-6.3,5.7-8.6c0.3-0.3,0.6-0.4,0.8-0.7c-0.1,0.1-0.4,0.3-0.6,0.4
	c-7.5,6.5-15,13.2-22.5,19.9c-3.1,2.6-6.1,5.4-9.2,8.1c2.8,1,5.6,0.8,8.5,1c2.1,0.1,4.3,0.1,6.4,0.3c-1,1.9-1.9,3.8-3.1,5.7
	c-1.4,2.5-2.8,5-3.3,7.9c7.1-2.4,14.2-4.7,21.1-7.1c4.6-1.5,9.3-3.1,13.9-4.7c2.5-0.8,5.3-1.5,7.6-2.8c0.4-0.1,0.7-0.4,1-0.7
	C70,36.6,67.8,37.4,65.6,37.7"/>
</svg>
